<?xml version="1.0" encoding="UTF-8"?><svg id="Layer_1" xmlns="http://www.w3.org/2000/svg" xmlns:xlink="http://www.w3.org/1999/xlink" viewBox="0 0 280 105.46"><defs><style>.cls-1{fill:#fff;}.cls-2,.cls-3,.cls-4,.cls-5{stroke:#1e1e1c;stroke-linejoin:round;}.cls-2,.cls-3,.cls-4,.cls-5,.cls-6{fill:none;}.cls-2,.cls-5{stroke-width:.92px;}.cls-3{stroke-width:.51px;}.cls-3,.cls-5{stroke-linecap:round;}.cls-4{stroke-width:.26px;}.cls-7{fill:#1e1e1c;}.cls-8{fill:#e73533;}.cls-9{fill:#dadada;}.cls-10{clip-path:url(#clippath);}</style><clipPath id="clippath"><rect class="cls-6" width="280" height="105.46"/></clipPath></defs><g class="cls-10"><path class="cls-1" d="M181.83,38.13s-1.08,2.73-.95,3.32,.72,1.9,1.32,2.43h1.69l.22,1.21h5.16v-2.11h1.9v-1.03l-2.26-3.93-7.07,.11Z"/><path class="cls-1" d="M188.1,84.39l-15.88-4.56-2.12-5.1,1.62-2.8-6.37-14.36-2.81,.59v2.04l-2.21,1.02-.6-1.7-1.78,.93-1.53-2.55s-.31-.18,.25-1.02l.56-.83,3.43-5.71-.36-2.57,5.28-7.66,3.16,6.6,2.42,.1,1.42,3.77,1.3-.31,3.89,10.37,3.07-3.08,6.8,6.36,1.84,4.97-5.08,5.83,3.69,9.65Z"/><polygon class="cls-9" points="191.22 46.94 191.21 45.26 183.25 45.26 183.25 47.32 178.24 51.84 176.7 48.76 173.84 50.18 177.65 60.34 180.86 57.57 182.49 59.15 184.72 56.58 189.42 68.7 184.41 74.74 188.1 84.39 205.6 60.71 191.22 46.94"/><path class="cls-1" d="M181.83,38.13s-1.08,2.73-.95,3.32,.72,1.9,1.32,2.43h1.69l.22,1.21h5.16v-2.11h1.9v-1.03l-2.26-3.93-7.07,.11Z"/><polygon class="cls-8" points="207.72 55.8 205.6 60.68 209.48 64.45 210.14 59.88 207.72 55.8"/><polygon class="cls-8" points="191.21 28.78 189.17 32.29 188.11 32.61 188.11 34.65 190.15 35.31 193.41 37.1 196.35 32.21 191.21 28.78"/><path class="cls-8" d="M184.1,45.09l-.22-1.21h-1.69c-.59-.53-1.18-1.84-1.32-2.43-.13-.59,.95-3.32,.95-3.32l6.64-.1-.03-.36-8.56-2.2,.73,8.73,8.56,2.45-.13-1.55h-4.94Z"/><polygon class="cls-8" points="190.8 42.73 193.41 37.1 197.98 40.28 200.22 38.04 202.91 40.73 199.73 44.16 194.55 50.13 189.04 45.13 188.84 42.64 190.8 42.73"/><polygon class="cls-8" points="171.88 32.55 179.87 35.47 179.22 26.91 169.75 23.01 171.88 32.55"/><polygon class="cls-8" points="188.03 31.06 179.22 26.9 178.73 18.59 187.86 23.89 188.03 31.06"/><polygon class="cls-8" points="207.46 34.97 208.19 43.7 216.75 46.14 216.02 37.17 207.46 34.97"/><polygon class="cls-8" points="216.75 46.26 217.25 52.17 223.05 53.83 221.29 48.99 216.75 46.26"/><polygon class="cls-8" points="219.29 62.26 220.8 57.57 214.55 56.22 214.07 62.76 219.29 62.26"/><polygon class="cls-9" points="179.51 34.33 190.63 34.75 188.89 38.02 181.83 38.18 179.51 34.33"/><polygon class="cls-8" points="200.59 50.88 203.69 47.54 199.73 44.16 196.79 47.09 200.59 50.88"/><polygon class="cls-8" points="206.87 44.44 203.69 47.54 206.83 50.68 217.25 52.17 206.87 44.44"/><polygon class="cls-8" points="204.01 54.23 200.59 50.88 198.06 53.57 205.6 60.71 204.01 54.23"/><polygon class="cls-8" points="171.88 32.56 174.08 42.4 169.35 42.81 164.36 29.86 171.88 32.56"/><polygon class="cls-8" points="160.28 19.29 156.55 9.61 167.64 13.53 169.76 23.03 160.28 19.29"/><polyline class="cls-5" points="172.22 79.83 170.1 74.73 171.71 71.93 165.34 57.57"/><path class="cls-5" d="M168.75,46.73l-3.16-6.6s-4.8,7.18-5.27,7.65c-.47,.47,0,1.06,0,1.06l.36,1.51s-3.65,6.2-3.99,6.54c-.34,.34-.25,1.02-.25,1.02l1.53,2.55,1.78-.93,.6,1.7c.51,0,2.21-1.02,2.21-1.02v-2.04l7.05-1.7v-2.12"/><polygon class="cls-7" points="169.22 46.67 191.47 105.3 192.98 103.8 170.96 46.41 169.22 46.67"/><polygon class="cls-4" points="169.22 46.67 191.47 105.3 192.98 103.8 170.96 46.41 169.22 46.67"/><path class="cls-1" d="M173.76,46.2l-1.64-3.9s-2.27-1.95-4.17-1.95c0,0-.96,.66-1.19,2.28l1.98,4.1h3.64l1.37-.53Z"/><path class="cls-2" d="M173.76,46.2l-1.64-3.9s-2.27-1.95-4.17-1.95c0,0-.96,.66-1.19,2.28l1.98,4.1h3.64l1.37-.53Z"/><polygon class="cls-1" points="175.97 45.72 177.34 48.47 172.59 50.6 171.17 46.83 175.97 45.72"/><polygon class="cls-2" points="175.97 45.72 177.34 48.47 172.59 50.6 171.17 46.83 175.97 45.72"/><polyline class="cls-5" points="187.05 52.37 177.65 60.34 173.84 50.17"/><polyline class="cls-2" points="176.7 48.76 178.24 51.84 183.67 46.94"/><line class="cls-5" x1="189.49" y1="68.9" x2="184.12" y2="55.03"/><line class="cls-2" x1="180.94" y1="57.65" x2="187.65" y2="64.14"/><line class="cls-2" x1="182.49" y1="59.15" x2="184.72" y2="56.58"/><polyline class="cls-5" points="188.1 84.39 184.41 74.74 189.47 68.83"/><path class="cls-2" d="M184.12,45.2l-.24-1.32h-1.69s-1.06-1.21-1.27-2.11c-.21-.9,.14-1.57,.9-3.59l-2.32-3.85,11.13,.42-1.74,3.27,2.27,3.93v1.03h-1.9v2.27l-5.14-.06Z"/><line class="cls-2" x1="181.83" y1="38.18" x2="188.89" y2="38.02"/><polyline class="cls-2" points="184.15 38.13 186.79 42.98 189.84 42.98"/><polygon class="cls-7" points="182.85 39.5 182.85 40.29 182.06 40.29 182.85 39.5"/><polygon class="cls-4" points="182.85 39.5 182.85 40.29 182.06 40.29 182.85 39.5"/><polyline class="cls-3" points="162.55 48.99 161.66 50.95 163.34 50.29"/><polygon class="cls-7" points="155.66 9.86 167.8 42.35 169.35 42.35 156.55 9.62 155.66 9.86"/><polygon class="cls-4" points="155.66 9.86 167.8 42.35 169.35 42.35 156.55 9.62 155.66 9.86"/><path class="cls-7" d="M157.12,8.52c0,.84-.68,1.51-1.51,1.51s-1.51-.68-1.51-1.51,.68-1.51,1.51-1.51,1.51,.68,1.51,1.51"/><path class="cls-7" d="M152.71,.23c-.09-.19-.31-.28-.51-.19-.2,.09-.28,.32-.2,.51l.07,.18c.02,.06,.04,.11,.06,.18,.41,1.11,2.53,7.26,2.53,7.26l1.29-.5s-2.4-5.59-3.12-7.17l-.13-.27Z"/><polygon class="cls-1" points="189.49 45.26 190.15 45.26 192.27 43.14 195.69 45.26 197.32 41.75 199.73 44.15 197 47.29 195.82 46.11 194.06 49.66 189.49 45.26"/><line class="cls-5" x1="191.22" y1="46.94" x2="205.6" y2="60.71"/><rect class="cls-1" x="183.25" y="45.09" width="7.97" height="1.85"/><rect class="cls-2" x="183.25" y="45.09" width="7.96" height="1.85"/><path class="cls-7" d="M280,72.34c0,1.4-1.12,2.51-2.55,2.51s-2.57-1.11-2.57-2.51,1.14-2.49,2.58-2.49,2.53,1.09,2.53,2.49m-4.48,0c0,1.11,.83,1.99,1.94,1.99,1.08,.01,1.9-.88,1.9-1.97s-.82-2-1.93-2-1.91,.89-1.91,1.99m1.53,1.29h-.58v-2.49c.23-.03,.55-.08,.96-.08,.47,0,.68,.08,.85,.2,.15,.11,.26,.29,.26,.53,0,.3-.23,.5-.52,.59v.03c.24,.08,.36,.27,.44,.61,.08,.38,.14,.51,.18,.61h-.61c-.08-.09-.12-.3-.2-.61-.04-.26-.2-.38-.51-.38h-.28v.99Zm.01-1.4h.28c.32,0,.58-.11,.58-.36,0-.23-.17-.38-.53-.38-.15,0-.26,.01-.32,.03v.71Z"/><path class="cls-7" d="M8.21,70.91c-.1,2.38-.14,5.32-.14,8.83,0,2.66-.55,4.55-1.64,5.67-.93,.96-2.37,1.44-4.33,1.44-.7,0-1.4-.08-2.1-.25l.21-2.58c.54,.24,1.07,.36,1.61,.36,1.05,0,1.81-.23,2.28-.69,.68-.65,1.02-1.89,1.02-3.72,0-3.65-.06-6.67-.18-9.07h3.27Z"/><path class="cls-7" d="M19.85,86.51l-2.83,.1c-.13-.33-.19-.64-.19-.91h-.16c-.88,.75-2.07,1.13-3.56,1.13-1,0-1.83-.28-2.49-.83-.66-.56-.99-1.29-.99-2.21,0-1.21,.51-2.21,1.54-2.99,1.03-.78,2.83-1.19,5.4-1.23,.01-.14,.02-.28,.02-.41,0-.86-.21-1.43-.62-1.71-.42-.28-1.18-.41-2.29-.41-1.21,0-2.39,.16-3.54,.48l.26-2.21c1.09-.38,2.62-.56,4.6-.56,1.45,0,2.56,.3,3.35,.91,.79,.61,1.18,1.67,1.18,3.19,0,.34-.01,.95-.04,1.83-.03,.89-.04,1.48-.04,1.78,0,1.65,.13,3.01,.38,4.06m-3.2-2.49c-.05-1.08-.07-2.01-.07-2.79-2.73,0-4.09,.69-4.09,2.07,0,.95,.6,1.43,1.8,1.43,.94,0,1.73-.24,2.36-.71"/><path class="cls-7" d="M32.99,86.53h-3.19c.18-2.02,.26-4.07,.26-6.14,0-1.26-.19-2.11-.56-2.55-.37-.45-.94-.67-1.7-.67-.91,0-1.77,.31-2.59,.93,.04,3.12,.06,5.93,.06,8.43h-3.23c.14-2.5,.21-4.47,.21-5.9,0-1.91-.2-3.71-.59-5.41l3.07-.34,.2,1.27h.19c1.1-.94,2.35-1.42,3.78-1.42,1.23,0,2.22,.29,2.96,.87,.74,.58,1.11,1.65,1.11,3.21,0,.23,0,.54-.03,.93-.02,.39-.03,.79-.03,1.19,0,1.08,.02,2.94,.06,5.59"/><path class="cls-7" d="M61.43,86.51l-2.83,.1c-.13-.33-.19-.64-.19-.91h-.16c-.88,.75-2.07,1.13-3.56,1.13-1,0-1.83-.28-2.49-.83-.66-.56-.99-1.29-.99-2.21,0-1.21,.51-2.21,1.54-2.99,1.03-.78,2.83-1.19,5.4-1.23,.01-.14,.02-.28,.02-.41,0-.86-.21-1.43-.62-1.71s-1.18-.41-2.29-.41c-1.21,0-2.39,.16-3.54,.48l.26-2.21c1.09-.38,2.62-.56,4.6-.56,1.45,0,2.56,.3,3.35,.91,.79,.61,1.18,1.67,1.18,3.19,0,.34-.01,.95-.04,1.83-.03,.89-.04,1.48-.04,1.78,0,1.65,.13,3.01,.38,4.06m-3.2-2.49c-.05-1.08-.07-2.01-.07-2.79-2.73,0-4.09,.69-4.09,2.07,0,.95,.6,1.43,1.8,1.43,.94,0,1.73-.24,2.36-.71"/><path class="cls-7" d="M74.57,86.53h-3.19c.18-2.02,.26-4.07,.26-6.14,0-1.26-.19-2.11-.56-2.55-.37-.45-.94-.67-1.7-.67-.91,0-1.77,.31-2.59,.93,.04,3.12,.06,5.93,.06,8.43h-3.23c.14-2.5,.21-4.47,.21-5.9,0-1.91-.2-3.71-.59-5.41l3.07-.34,.2,1.27h.19c1.1-.94,2.35-1.42,3.78-1.42,1.23,0,2.22,.29,2.96,.87,.74,.58,1.11,1.65,1.11,3.21,0,.23,0,.54-.03,.93-.02,.39-.03,.79-.03,1.19,0,1.08,.02,2.94,.06,5.59"/><path class="cls-7" d="M50.53,75.13c0,.46-.72,2.36-2.15,5.7-1.43,3.33-2.15,5.23-2.15,5.7h-3.27c0-.51-.63-2.46-1.91-5.83-1.27-3.38-1.91-5.23-1.91-5.56h3.5c0,.36,.4,1.75,1.18,4.17,.79,2.42,1.18,3.84,1.18,4.26h.16c0-.38,.38-1.73,1.13-4.03,.75-2.3,1.13-3.77,1.13-4.4h3.11Z"/><path class="cls-7" d="M94.16,81.82c0,3.18-2.6,4.77-7.81,4.77-.9,0-2.31-.02-4.22-.07,.1-2.41,.16-5.14,.16-8.17s-.05-5.39-.16-7.45h1.94c.37,0,.99-.01,1.85-.04,.87-.02,1.54-.04,2.03-.04,3.54,0,5.31,1.15,5.31,3.45,0,1.77-.91,2.95-2.72,3.53v.18c.97,.15,1.81,.53,2.53,1.13,.72,.6,1.08,1.5,1.08,2.69m-4.11-6.58c0-1.43-.9-2.15-2.69-2.15-.82,0-1.56,.06-2.2,.18,.09,.81,.13,2.19,.13,4.16,.3,.02,.62,.02,.96,.02,2.53,0,3.79-.74,3.79-2.22m.88,6.71c0-1.59-1.4-2.39-4.19-2.39-.55,0-1.03,.02-1.43,.06,0,1.67,.04,3.21,.11,4.62,.27,.06,.68,.1,1.22,.1,1.48,0,2.56-.18,3.25-.53,.69-.36,1.03-.97,1.03-1.85"/><path class="cls-7" d="M104.02,75.13l-.7,2.81c-.59-.24-1.19-.36-1.8-.36-1.17,0-1.95,.53-2.33,1.58,0,3.19,.02,5.64,.07,7.36h-3.19c.14-2.41,.2-4.37,.2-5.9,0-1.9-.2-3.71-.6-5.41l3.06-.34c.14,.88,.2,1.39,.2,1.55h.19c.74-1.13,1.72-1.69,2.94-1.69,.58,0,1.22,.13,1.94,.4"/><path class="cls-7" d="M115.23,86.51l-2.83,.1c-.13-.33-.19-.64-.19-.91h-.16c-.88,.75-2.07,1.13-3.56,1.13-1,0-1.83-.28-2.49-.83-.66-.56-.99-1.29-.99-2.21,0-1.21,.51-2.21,1.54-2.99,1.03-.78,2.83-1.19,5.4-1.23,.01-.14,.02-.28,.02-.41,0-.86-.21-1.43-.62-1.71s-1.18-.41-2.29-.41c-1.21,0-2.39,.16-3.54,.48l.26-2.21c1.09-.38,2.62-.56,4.6-.56,1.45,0,2.56,.3,3.35,.91,.79,.61,1.18,1.67,1.18,3.19,0,.34-.01,.95-.04,1.83s-.04,1.48-.04,1.78c0,1.65,.13,3.01,.38,4.06m-3.2-2.49c-.05-1.08-.07-2.01-.07-2.79-2.73,0-4.09,.69-4.09,2.07,0,.95,.6,1.43,1.8,1.43,.94,0,1.73-.24,2.36-.71"/><path class="cls-7" d="M128.79,80.34c0,1.74-.5,3.26-1.49,4.57-.99,1.31-2.35,1.97-4.09,1.97-1.28,0-2.18-.27-2.71-.81h-.16l-.24,.47h-2.82c.1-2.81,.16-5.78,.16-8.91,0-2.95-.13-5.6-.4-7.95l3.44-.19c-.08,1.86-.12,3.97-.12,6.32h.14c.81-.71,1.9-1.07,3.27-1.07,1.53,0,2.75,.55,3.65,1.66,.9,1.11,1.35,2.42,1.35,3.95m-3.19,.31c0-1-.25-1.86-.76-2.6-.51-.73-1.21-1.1-2.09-1.1-1.1,0-1.91,.32-2.42,.97,0,2.73,.06,4.79,.18,6.18,.5,.39,1.16,.59,1.95,.59,1.06,0,1.85-.39,2.37-1.18,.52-.79,.77-1.74,.77-2.86"/><path class="cls-7" d="M140.3,86.51l-2.83,.1c-.13-.33-.19-.64-.19-.91h-.16c-.88,.75-2.07,1.13-3.56,1.13-1,0-1.83-.28-2.49-.83-.66-.56-.99-1.29-.99-2.21,0-1.21,.51-2.21,1.54-2.99,1.03-.78,2.83-1.19,5.4-1.23,.01-.14,.02-.28,.02-.41,0-.86-.21-1.43-.62-1.71s-1.18-.41-2.29-.41c-1.21,0-2.39,.16-3.54,.48l.26-2.21c1.09-.38,2.62-.56,4.6-.56,1.45,0,2.56,.3,3.35,.91,.79,.61,1.18,1.67,1.18,3.19,0,.34-.01,.95-.04,1.83-.03,.89-.04,1.48-.04,1.78,0,1.65,.13,3.01,.38,4.06m-3.2-2.49c-.05-1.08-.07-2.01-.07-2.79-2.73,0-4.09,.69-4.09,2.07,0,.95,.6,1.43,1.8,1.43,.94,0,1.73-.24,2.36-.71"/><path class="cls-7" d="M153.14,86.53h-3.19c.18-2.02,.26-4.07,.26-6.14,0-1.26-.19-2.11-.56-2.55-.37-.45-.94-.67-1.7-.67-.91,0-1.77,.31-2.59,.93,.04,3.12,.06,5.93,.06,8.43h-3.23c.14-2.5,.22-4.47,.22-5.9,0-1.91-.2-3.71-.59-5.41l3.07-.34,.2,1.27h.19c1.1-.94,2.35-1.42,3.78-1.42,1.23,0,2.22,.29,2.96,.87,.74,.58,1.11,1.65,1.11,3.21,0,.23,0,.54-.03,.93-.02,.39-.03,.79-.03,1.19,0,1.08,.02,2.94,.06,5.59"/><path class="cls-7" d="M162.7,84.28l-.2,2.13c-.56,.24-1.26,.36-2.11,.36-1.3,0-2.27-.35-2.93-1.06-.66-.7-.98-2.06-.98-4.06,0-1.21,0-2.57,.02-4.1-.41,0-.96,.02-1.65,.07l.08-2.36c.61,.05,1.19,.07,1.72,.07,0-.42,.04-1.54,.1-3.34l2.84-.35c-.12,1.59-.18,2.82-.18,3.69,.67,0,1.67-.03,3.01-.1l-.1,2.39c-1.21-.05-2.2-.07-2.96-.07-.02,1.06-.02,2.18-.02,3.34,0,1.42,.14,2.38,.43,2.86,.29,.49,.8,.73,1.52,.73,.44,0,.91-.07,1.42-.2"/><path class="cls-7" d="M213.34,83.68l-.2,2.76c-1.13,.27-2.25,.41-3.36,.41-2.74,0-4.83-.76-6.27-2.27-1.43-1.51-2.15-3.35-2.15-5.52s.76-4.2,2.28-5.86c1.52-1.66,3.61-2.49,6.26-2.49,.98,0,1.9,.11,2.77,.34l-.42,2.77c-.94-.3-1.85-.46-2.71-.46-1.62,0-2.83,.51-3.62,1.54-.79,1.03-1.19,2.28-1.19,3.75s.47,2.81,1.41,3.91c.94,1.1,2.26,1.65,3.95,1.65,.99,0,2.07-.17,3.24-.51"/><path class="cls-7" d="M226.69,80.57c0,2.01-.62,3.59-1.86,4.72-1.24,1.14-2.7,1.7-4.38,1.7s-2.97-.52-4.11-1.55c-1.14-1.03-1.72-2.49-1.72-4.37,0-2.02,.62-3.61,1.87-4.75,1.25-1.14,2.71-1.72,4.39-1.72,1.59,0,2.96,.52,4.1,1.56,1.14,1.04,1.71,2.51,1.71,4.4m-3.13,.36c0-1.16-.27-2.13-.81-2.92-.54-.79-1.25-1.18-2.12-1.18s-1.54,.37-2.07,1.1c-.53,.74-.8,1.65-.8,2.76,0,1.16,.27,2.13,.82,2.92,.54,.79,1.25,1.18,2.12,1.18s1.54-.37,2.07-1.1,.8-1.66,.8-2.76"/><path class="cls-7" d="M231.62,86.53h-3.27c.12-2.74,.18-5.71,.18-8.91s-.12-5.77-.37-7.95l3.47-.19c-.12,2.26-.18,4.98-.18,8.14s.06,6.18,.18,8.91"/><path class="cls-7" d="M237.33,86.53h-3.27c.12-2.74,.18-5.71,.18-8.91s-.12-5.77-.37-7.95l3.47-.19c-.12,2.26-.18,4.98-.18,8.14s.06,6.18,.18,8.91"/><path class="cls-7" d="M249.99,79.61c0,.41-.02,.94-.07,1.6l-7.72,.13c.11,.91,.5,1.66,1.16,2.25,.66,.6,1.53,.9,2.61,.9,1.2,0,2.47-.18,3.83-.54l-.24,2.33c-1.1,.4-2.47,.6-4.1,.6-2.06,0-3.64-.58-4.74-1.74-1.1-1.16-1.65-2.55-1.65-4.18s.52-3.18,1.56-4.43c1.04-1.25,2.49-1.88,4.35-1.88,1.69,0,2.95,.46,3.78,1.38,.82,.92,1.24,2.12,1.24,3.59m-2.81-.11c0-1.84-.78-2.76-2.35-2.76s-2.38,.95-2.66,2.85l5.01-.1Z"/><path class="cls-7" d="M264.01,73.48l-.26,2.23c-1.25,0-2.03,.18-2.34,.54v.16c.47,.6,.71,1.27,.71,2.01,0,1.14-.42,2.12-1.26,2.93-.84,.81-2.1,1.21-3.77,1.21-.82,0-1.48-.06-2-.19-.42,.19-.64,.44-.64,.75,0,.49,.25,.83,.76,1.03,.51,.2,1.69,.29,3.54,.29,3.21,0,4.81,1.09,4.81,3.27,0,1.53-.67,2.75-2,3.66s-2.96,1.35-4.87,1.35c-3.74,0-5.61-1.17-5.61-3.53,0-.73,.21-1.34,.63-1.85s.91-.82,1.46-.93v-.18c-.67-.42-1.01-1.07-1.01-1.94s.46-1.61,1.38-2.21v-.17c-1.3-.65-1.94-1.66-1.94-3.03,0-1.18,.45-2.16,1.34-2.95,.89-.79,2.27-1.19,4.13-1.19,1.27,0,2.3,.24,3.09,.72h.17c.23-1.51,1.01-2.27,2.33-2.27,.52,0,.98,.09,1.37,.28m-3.42,15.12c0-.59-.23-1.02-.68-1.28-.45-.26-1.23-.4-2.33-.4-.9,0-1.8-.04-2.71-.12-.7,.41-1.06,1.03-1.06,1.86,0,1.53,1.02,2.3,3.07,2.3,1.14,0,2.05-.22,2.71-.65,.66-.43,1-1,1-1.72m-1.41-9.87c0-.72-.23-1.27-.7-1.64-.46-.38-1-.56-1.6-.56s-1.12,.18-1.58,.55c-.45,.36-.68,.9-.68,1.6s.23,1.25,.7,1.62c.46,.37,1,.55,1.62,.55,.58,0,1.1-.18,1.55-.53,.45-.36,.68-.88,.68-1.58"/><path class="cls-7" d="M275.18,79.61c0,.41-.02,.94-.07,1.6l-7.72,.13c.11,.91,.5,1.66,1.16,2.25,.66,.6,1.53,.9,2.61,.9,1.2,0,2.47-.18,3.83-.54l-.24,2.33c-1.1,.4-2.47,.6-4.1,.6-2.06,0-3.64-.58-4.74-1.74-1.1-1.16-1.65-2.55-1.65-4.18s.52-3.18,1.56-4.43c1.04-1.25,2.49-1.88,4.35-1.88,1.69,0,2.95,.46,3.78,1.38,.82,.92,1.24,2.12,1.24,3.59m-2.81-.11c0-1.84-.78-2.76-2.35-2.76s-2.38,.95-2.66,2.85l5.01-.1Z"/></g></svg>